# xmcd CD database file
#
# Track frame offsets:
#	150
#	20365
#	38197
#	50296
#	66972
#	81419
#	93466
#	107763
#	124223
#	144197
#
# Disc length: 2017 seconds
#
# Revision: 0
# Processed by: cddbd v1.5.1PL0 Copyright (c) Steve Scherf et al.
# Submitted via: CDex 1.51
#
DISCID=8307df0a
DTITLE=ニッカーボッカー - ニッカーボッカー
DYEAR=1900
DGENRE=Pop
TTITLE0=喫茶店アコーディオン
TTITLE1=カーディガンの娘
TTITLE2=東京コチカネット
TTITLE3=老婆のウクレレ
TTITLE4=大正ロンド
TTITLE5=キングオブザスパゲッティ
TTITLE6=さよなら越中小町
TTITLE7=ボウルダンス
TTITLE8=７５年前
TTITLE9=ホノルル銀座より
EXTD=
EXTT0=
EXTT1=
EXTT2=
EXTT3=
EXTT4=
EXTT5=
EXTT6=
EXTT7=
EXTT8=
EXTT9=
PLAYORDER=
